<svg xmlns="http://www.w3.org/2000/svg" viewBox="0 0 660.84 659.87"><title>icon</title><path d="M622.68,500c0-68.43-56.33-124-125.14-122.87-66.11,1.07-120.07,54.92-121,121a122.79,122.79,0,0,0,56.87,105.39,122.84,122.84,0,0,0-56.89,103.55V810.61A19.34,19.34,0,0,0,395.82,830H603.35a19.33,19.33,0,0,0,19.33-19.34V707.06A122.85,122.85,0,0,0,565.8,603.51,122.84,122.84,0,0,0,622.68,500Z" transform="translate(-169.16 -170.08)" style="fill:#b14cf2"/><path d="M499.59,274c-124.85,0-226.43,101.58-226.43,226.44a226.62,226.62,0,0,0,70.67,164.31,160.71,160.71,0,0,1,14.74-36q.75-1.34,1.53-2.67a187.87,187.87,0,0,1-48.27-125.66c0-103.53,84.23-187.76,187.76-187.76s187.76,84.23,187.76,187.76a187.81,187.81,0,0,1-48.26,125.66c.51.89,1,1.78,1.53,2.67a160.68,160.68,0,0,1,14.73,36A226.63,226.63,0,0,0,726,500.47C726,375.61,624.45,274,499.59,274Z" transform="translate(-169.16 -170.08)" style="fill:#b14cf2"/><path d="M733.22,266.86C655.34,189,545.42,154.75,433.16,176.52a313.48,313.48,0,0,0-115.58,47.85c-94.83,64-148.42,165.93-148.42,276.13A331.16,331.16,0,0,0,337.81,788.67V743.28A292.38,292.38,0,0,1,207.89,500.5c0-160.85,130.85-291.7,291.69-291.7s291.7,130.85,291.7,291.7A292.39,292.39,0,0,1,661.35,743.28v45.39a330.47,330.47,0,0,0,71.87-521.81Z" transform="translate(-169.16 -170.08)" style="fill:#b14cf2"/></svg>