<svg xmlns="http://www.w3.org/2000/svg" viewBox="0 0 1523.14 473.75"><title>logo</title><path d="M954.18,450.69V595.84H917.24V577.5a48.41,48.41,0,0,1-18.47,14.8A57.35,57.35,0,0,1,874,597.67q-17,0-30.13-7.2a50.77,50.77,0,0,1-20.57-21.22q-7.47-14-7.46-33.41V450.69h36.68V530.6q0,17.29,8.64,26.59t23.58,9.3q15.19,0,23.84-9.3t8.65-26.59V450.69Z" transform="translate(-198.16 -303.03)" style="fill:#b14cf2"/><path d="M1046.53,455q12.45-6.67,28.43-6.68a63.54,63.54,0,0,1,33.67,9.17,64.61,64.61,0,0,1,23.84,26.07q8.77,16.9,8.78,39.17t-8.78,39.43q-8.78,17.16-23.84,26.59A62.16,62.16,0,0,1,1075,598.2q-16,0-28.16-6.55A60.3,60.3,0,0,1,1027,575.14V665H990.34V450.69H1027v21A55.71,55.71,0,0,1,1046.53,455Zm51.88,45.07a37.17,37.17,0,0,0-14.15-14.54,37.83,37.83,0,0,0-19-5,36.61,36.61,0,0,0-18.74,5.11,37.81,37.81,0,0,0-14.14,14.8q-5.39,9.69-5.37,22.79t5.37,22.8a37.81,37.81,0,0,0,14.14,14.8,37,37,0,0,0,37.73-.13,38.89,38.89,0,0,0,14.15-14.93q5.37-9.69,5.37-23.06Q1103.78,509.65,1098.41,500.08Z" transform="translate(-198.16 -303.03)" style="fill:#b14cf2"/><path d="M1167.71,483.83a65.61,65.61,0,0,1,25.41-26.2q16.25-9.28,37.21-9.3,27,0,44.67,13.5t23.71,37.85h-39.56a29,29,0,0,0-10.61-14.8q-7.47-5.37-18.48-5.37-15.72,0-24.89,11.4T1196,523.26q0,20.7,9.17,32.1t24.89,11.4q22.28,0,29.09-19.92h39.56q-6,23.58-23.84,37.47t-44.54,13.89q-21,0-37.21-9.31a65.45,65.45,0,0,1-25.41-26.19q-9.18-16.91-9.17-39.44T1167.71,483.83Z" transform="translate(-198.16 -303.03)" style="fill:#b14cf2"/><path d="M1325,483.7q8.78-17,23.84-26.2a63.48,63.48,0,0,1,33.66-9.17q16.24,0,28.43,6.55a57.72,57.72,0,0,1,19.52,16.51v-20.7h36.94V595.84h-36.94V574.62a54.56,54.56,0,0,1-19.52,16.9q-12.45,6.68-28.69,6.68a61.66,61.66,0,0,1-33.4-9.44q-15.08-9.42-23.84-26.59t-8.78-39.43Q1316.26,500.74,1325,483.7Zm100.21,16.64a37,37,0,0,0-14.15-14.67,37.76,37.76,0,0,0-19.12-5.11,36.82,36.82,0,0,0-32.88,19.52q-5.38,9.57-5.37,22.66t5.37,22.93a38.55,38.55,0,0,0,14.14,15.06A35.89,35.89,0,0,0,1392,566a37.76,37.76,0,0,0,19.12-5.11,36.91,36.91,0,0,0,14.15-14.67q5.24-9.56,5.24-22.93T1425.25,500.34Z" transform="translate(-198.16 -303.03)" style="fill:#b14cf2"/><path d="M1526.91,591.78q-14.16-6.42-22.41-17.43a44.09,44.09,0,0,1-9-24.36h36.94a20.07,20.07,0,0,0,8.25,13.88q7.2,5.5,17.95,5.51,10.47,0,16.37-4.2t5.9-10.74q0-7.07-7.21-10.61t-22.92-7.73a193.06,193.06,0,0,1-26.59-8.12,46,46,0,0,1-17.82-12.84q-7.47-8.64-7.47-23.32a37.54,37.54,0,0,1,7-22q6.93-10,19.91-15.72t30.52-5.77q25.93,0,41.4,13t17,35h-35.11a19,19,0,0,0-7.21-13.76q-6.42-5.1-17.16-5.11-10,0-15.32,3.67a11.7,11.7,0,0,0-5.38,10.22q0,7.33,7.34,11.14t22.79,7.72a192.54,192.54,0,0,1,25.94,8.13,45.84,45.84,0,0,1,17.69,13q7.47,8.78,7.73,23.18a38.41,38.41,0,0,1-7,22.53q-6.94,10-19.91,15.59t-30.26,5.64Q1541.05,598.2,1526.91,591.78Z" transform="translate(-198.16 -303.03)" style="fill:#b14cf2"/><path d="M1688.82,480.82V551q0,7.34,3.54,10.61t11.92,3.27h17v30.92h-23.06q-46.37,0-46.37-45.07V480.82h-17.29V450.69h17.29V414.8h36.94v35.89h32.49v30.13Z" transform="translate(-198.16 -303.03)" style="fill:#b14cf2"/><path d="M523.46,540.08A88.32,88.32,0,0,0,433.7,452c-47.42.77-86.12,39.39-86.82,86.81a88.11,88.11,0,0,0,40.79,75.6,88.09,88.09,0,0,0-40.8,74.27v74.28a13.87,13.87,0,0,0,13.87,13.86H509.6a13.86,13.86,0,0,0,13.86-13.86V688.63a88.09,88.09,0,0,0-40.8-74.27A88.12,88.12,0,0,0,523.46,540.08Z" transform="translate(-198.16 -303.03)" style="fill:#b14cf2"/><path d="M434.85,377.59c-89.56,0-162.42,72.86-162.42,162.42a162.56,162.56,0,0,0,50.69,117.86,115.26,115.26,0,0,1,10.57-25.81c.36-.64.73-1.28,1.1-1.91A134.79,134.79,0,0,1,300.17,540c0-74.26,60.41-134.68,134.68-134.68S569.53,465.75,569.53,540a134.8,134.8,0,0,1-34.63,90.14c.37.63.74,1.27,1.1,1.91a115.26,115.26,0,0,1,10.57,25.81A162.52,162.52,0,0,0,597.26,540C597.26,450.45,524.4,377.59,434.85,377.59Z" transform="translate(-198.16 -303.03)" style="fill:#b14cf2"/><path d="M602.75,372.44C546.89,316.58,468,292,387.53,307.65A224.71,224.71,0,0,0,304.62,342C236.6,387.85,198.16,461,198.16,540a237.53,237.53,0,0,0,121,206.7V714.17A209.71,209.71,0,0,1,225.94,540c0-115.37,93.86-209.23,209.23-209.23S644.4,424.66,644.4,540a209.72,209.72,0,0,1-93.2,174.14v32.56a237,237,0,0,0,51.55-374.29Z" transform="translate(-198.16 -303.03)" style="fill:#b14cf2"/></svg>