<?xml version="1.0"?>
<svg xmlns="http://www.w3.org/2000/svg" xmlns:xlink="http://www.w3.org/1999/xlink" xmlns:svgjs="http://svgjs.com/svgjs" version="1.1" width="512" height="512" x="0" y="0" viewBox="0 0 512.089 512.089" style="enable-background:new 0 0 512 512" xml:space="preserve" class=""><g><g xmlns="http://www.w3.org/2000/svg"><path d="m342.595 96.948c-.851 8.222-8.201 14.268-16.5 13.39-32.059-3.317-59.578 19.779-62.75 50.8-.875 8.471-8.538 14.308-16.49 13.39-46.016-4.844-79.081-44.35-77.78-88.53.485-22.357 9.388-43.631 25.35-59.9 34.126-34.788 89.096-34.807 123.24 0 18.646 19.004 27.572 44.777 24.93 70.85z" fill="#00b4db" data-original="#000000" style="" class=""/><path d="m468.395 194.708c11.329 39.178 11.742 82.004 0 122.61 26.09-12.33 43.65-35.19 43.65-61.3s-17.56-48.97-43.65-61.31zm-96.58-90.52c-4.176 21.186-22.878 36.24-44.14 36.24-3.267 0-5.365-.41-7.63-.41-13.9 0-25.45 10.39-26.86 24.17-2.495 24.552-24.45 42.747-49.47 40.18-54.19-5.71-96.28-47.49-103.55-100.09-84.118 64.379-101.43 186.403-32.73 271.59 34.938 43.322 88.649 71.15 148.61 71.15 105.32 0 191-85.68 191-191 0-61.83-29.53-116.9-75.23-151.83zm-209.16 134.15c-5.86 5.86-15.36 5.86-21.22 0-5.85-5.86-5.85-15.35 0-21.21 21.496-21.496 56.292-21.498 77.79 0 5.85 5.86 5.85 15.35-.01 21.21-5.841 5.861-15.338 5.872-21.21 0-9.748-9.748-25.565-9.786-35.35 0zm143.59 100.29c-27.679 27.679-72.719 27.681-100.4 0-5.86-5.86-5.86-15.36-.01-21.22 5.86-5.85 15.36-5.85 21.22 0 15.98 15.99 42 15.99 57.98 0 5.86-5.85 15.36-5.85 21.22 0 5.85 5.86 5.85 15.36-.01 21.22zm64.97-100.29c-5.841 5.861-15.338 5.872-21.21 0-9.748-9.748-25.564-9.786-35.35 0-5.86 5.86-15.36 5.86-21.22 0-5.85-5.86-5.85-15.35 0-21.21 21.496-21.496 56.292-21.498 77.79 0 5.85 5.86 5.85 15.35-.01 21.21zm16.5 195.08c-77.247 57.474-182.612 58.136-260.48 2.09-14.67 16.58-25.85 35.85-32.72 56.84-2.58 7.87 1.71 16.34 9.58 18.92 3.534 1.163-15.819.75 303.95.75 10.19 0 17.427-9.98 14.25-19.67-7.18-21.92-19-41.91-34.58-58.93zm-344.02-238.71c-26.09 12.34-43.65 35.2-43.65 61.31s17.56 48.97 43.65 61.3c-11.352-39.257-11.719-82.084 0-122.61z" fill="#00b4db" data-original="#000000" style="" class=""/></g></g></svg>
