<?xml version="1.0"?>
<svg xmlns="http://www.w3.org/2000/svg" xmlns:xlink="http://www.w3.org/1999/xlink" xmlns:svgjs="http://svgjs.com/svgjs" version="1.1" width="512" height="512" x="0" y="0" viewBox="0 0 511.9 511.9" style="enable-background:new 0 0 512 512" xml:space="preserve" class=""><g><g xmlns="http://www.w3.org/2000/svg"><path d="m406.485 15c0-8.28-6.72-15-15-15h-331.3c-8.28 0-15 6.72-15 15v466.76c0 19.418 18.126 33.695 36.85 29.36 13.39-3.05 23.39-15.04 23.39-29.36 0-71.204 0-209.616 0-406.53 0-8.28 6.72-15 15-15h286.06z" fill="#007991" data-original="#000000" style="" class=""/><path d="m210.665 150.47h180.82v75.41h-180.82z" fill="#007991" data-original="#000000" style="" class=""/><path d="m451.715 90.23h-301.29c-8.284 0-15 6.716-15 15v376.53c0 10.6-2.83 21.02-8.1 30.12h324.39c8.29 0 15-6.72 15-15v-391.65c0-8.284-6.716-15-15-15zm-45.23 346.36h-67.77c-8.28 0-15-6.72-15-15 0-8.29 6.72-15 15-15h67.77c8.28 0 15 6.71 15 15 0 8.28-6.72 15-15 15zm0-60.24h-210.82c-8.29 0-15-6.71-15-15 0-8.28 6.71-15 15-15h210.82c8.28 0 15 6.72 15 15 0 8.29-6.72 15-15 15zm0-60.23h-210.82c-8.29 0-15-6.72-15-15 0-8.29 6.71-15 15-15h210.82c8.28 0 15 6.71 15 15 0 8.28-6.72 15-15 15zm15-75.24c0 8.29-6.72 15-15 15h-210.82c-8.29 0-15-6.71-15-15v-105.41c0-8.28 6.71-15 15-15h210.82c8.28 0 15 6.72 15 15z" fill="#007991" data-original="#000000" style="" class=""/></g></g></svg>
